<svg id="Lager_1" data-name="Lager 1" xmlns="http://www.w3.org/2000/svg" viewBox="0 0 367.47 79.4"><defs><style>.cls-1{fill:#fff;}</style></defs><polygon class="cls-1" points="248.38 43.23 262.79 43.23 262.79 32.43 248.38 32.43 248.38 10.8 265.67 10.8 265.67 0 237.58 0 237.58 79.4 265.67 79.4 265.67 68.6 248.38 68.6 248.38 43.23"/><polygon class="cls-1" points="305.3 10.8 321.86 10.8 305.3 68.6 305.3 79.4 332.67 79.4 332.67 68.6 316.1 68.6 332.67 10.8 332.67 0 305.3 0 305.3 10.8"/><polygon class="cls-1" points="66.07 0 35.1 0 35.1 10.8 45.18 10.8 45.18 79.4 55.99 79.4 55.99 10.8 66.07 10.8 66.07 0"/><polygon class="cls-1" points="283.25 43.23 297.65 43.23 297.65 32.43 283.25 32.43 283.25 10.8 300.54 10.8 300.54 0 272.44 0 272.44 79.4 300.54 79.4 300.54 68.6 283.25 68.6 283.25 43.23"/><polygon class="cls-1" points="350.18 68.6 350.18 43.23 364.58 43.23 364.58 32.43 350.18 32.43 350.18 10.8 367.47 10.8 367.47 0 339.37 0 339.37 79.4 367.47 79.4 367.47 68.6 350.18 68.6"/><path class="cls-1" d="M364.88,291.9V263.26h0a9.36,9.36,0,0,0-9.36-9.36H333.19v79.4H344V301.54h4.32L357,333.3h10.81l-9.15-32.6A9.35,9.35,0,0,0,364.88,291.9Zm-10.81-1.17H344v-26h10.08Z" transform="translate(-222.58 -253.9)"/><path class="cls-1" d="M254.27,311c0-5.67-1.44-8.51-4-11.8l-14.55-19.28c-1.15-1.48-2.31-2.95-2.31-7.49V264.7h10.09v16.81h10.8V263.26a9.36,9.36,0,0,0-9.36-9.36h-13a9.36,9.36,0,0,0-9.36,9.36v10.67c0,5.67,1.44,8.51,3.89,11.68L241.16,305a11.9,11.9,0,0,1,2.31,7.49v9.32H233.39V303.31H222.58v20a9.36,9.36,0,0,0,9.36,9.36h13a9.36,9.36,0,0,0,9.36-9.36Z" transform="translate(-222.58 -253.9)"/><path class="cls-1" d="M299.18,253.9l-11.52,79.4h10.8l2-13.6H314l2,13.6h10.81l-11.53-79.4Zm2.82,55,5.2-37.62,5.2,37.62Z" transform="translate(-222.58 -253.9)"/><path class="cls-1" d="M398.28,253.9H376v79.4h22.33a9.36,9.36,0,0,0,9.36-9.36V299.27c0-5.1-3-6.81-6.48-7.37,3.46-.57,6.48-2.73,6.48-7.83V263.26A9.36,9.36,0,0,0,398.28,253.9Zm-1.44,68.59H386.75V297.3h10.09Zm0-36H386.75V264.7h10.09Z" transform="translate(-222.58 -253.9)"/><path class="cls-1" d="M450.05,291.9V263.26h0a9.36,9.36,0,0,0-9.35-9.36H418.36v79.4h10.81V301.54h4.32l8.73,31.76H453l-9.15-32.6A9.35,9.35,0,0,0,450.05,291.9Zm-10.8-1.17H429.17v-26h10.08Z" transform="translate(-222.58 -253.9)"/></svg>