<?xml version="1.0" encoding="UTF-8"?>
<!DOCTYPE svg PUBLIC "-//W3C//DTD SVG 1.1//EN" "http://www.w3.org/Graphics/SVG/1.1/DTD/svg11.dtd">
<svg xmlns="http://www.w3.org/2000/svg" version="1.1" width="1280px" height="273px" style="shape-rendering:geometricPrecision; text-rendering:geometricPrecision; image-rendering:optimizeQuality; fill-rule:evenodd; clip-rule:evenodd" xmlns:xlink="http://www.w3.org/1999/xlink">
<g><path style="opacity:1" fill="#040809" d="M -0.5,-0.5 C 426.167,-0.5 852.833,-0.5 1279.5,-0.5C 1279.5,90.5 1279.5,181.5 1279.5,272.5C 852.833,272.5 426.167,272.5 -0.5,272.5C -0.5,181.5 -0.5,90.5 -0.5,-0.5 Z"/></g>
<g><path style="opacity:1" fill="#fcfdfd" d="M 33.5,33.5 C 366.167,33.1667 698.834,33.5 1031.5,34.5C 1011.57,102.78 991.57,170.947 971.5,239C 658.834,239.5 346.167,239.667 33.5,239.5C 33.5,170.833 33.5,102.167 33.5,33.5 Z"/></g>
<g><path style="opacity:1" fill="#fdfdfd" d="M 1111.5,33.5 C 1138.17,33.3334 1164.84,33.5 1191.5,34C 1207.67,33.8773 1221.84,39.044 1234,49.5C 1239.3,57.67 1242.3,66.67 1243,76.5C 1244.08,88.9444 1243.42,101.278 1241,113.5C 1239.86,119.643 1236.69,124.476 1231.5,128C 1225.62,130.968 1219.62,133.634 1213.5,136C 1239.44,139.992 1250.77,155.159 1247.5,181.5C 1248.44,196.896 1244.61,210.896 1236,223.5C 1227.92,230.789 1218.42,235.289 1207.5,237C 1202.17,237.667 1196.83,238.333 1191.5,239C 1162.83,239.667 1134.17,239.667 1105.5,239C 1092.55,238.348 1080.55,234.682 1069.5,228C 1060.41,218.758 1055.58,207.591 1055,194.5C 1054.5,184.839 1054.33,175.172 1054.5,165.5C 1079.5,165.5 1104.5,165.5 1129.5,165.5C 1129.33,173.174 1129.5,180.841 1130,188.5C 1130.35,190.848 1131.51,192.681 1133.5,194C 1144.74,195.622 1156.07,195.955 1167.5,195C 1170.38,193.411 1171.88,190.911 1172,187.5C 1172.67,179.5 1172.67,171.5 1172,163.5C 1171.31,160.943 1169.81,159.109 1167.5,158C 1161.18,157.5 1154.84,157.334 1148.5,157.5C 1148.5,143.5 1148.5,129.5 1148.5,115.5C 1153.51,115.666 1158.51,115.499 1163.5,115C 1165.49,114.426 1166.99,113.259 1168,111.5C 1169.51,102.553 1169.85,93.5531 1169,84.5C 1168.5,80 1166,77.5 1161.5,77C 1153.5,76.3333 1145.5,76.3333 1137.5,77C 1134.94,77.6853 1133.11,79.1853 1132,81.5C 1131.5,89.1594 1131.33,96.8261 1131.5,104.5C 1106.5,104.5 1081.5,104.5 1056.5,104.5C 1055.24,88.7426 1057.07,73.4093 1062,58.5C 1066.71,48.7873 1074.21,42.2873 1084.5,39C 1093.48,36.4289 1102.48,34.5955 1111.5,33.5 Z"/></g>
<g><path style="opacity:1" fill="#040809" d="M 534.5,66.5 C 569.502,66.3333 604.502,66.5 639.5,67C 654.076,68.912 663.909,76.7453 669,90.5C 669.667,119.5 669.667,148.5 669,177.5C 664.363,192.134 654.529,201.301 639.5,205C 604.502,205.5 569.502,205.667 534.5,205.5C 534.5,159.167 534.5,112.833 534.5,66.5 Z"/></g>
<g><path style="opacity:1" fill="#040809" d="M 172.5,173.5 C 156.5,173.5 140.5,173.5 124.5,173.5C 124.5,184.167 124.5,194.833 124.5,205.5C 105.167,205.5 85.8333,205.5 66.5,205.5C 66.5,159.167 66.5,112.833 66.5,66.5C 101.502,66.3333 136.502,66.5 171.5,67C 186.78,69.2724 196.947,77.7724 202,92.5C 202.951,112.218 202.617,131.885 201,151.5C 195.69,164.315 186.19,171.649 172.5,173.5 Z"/></g>
<g><path style="opacity:1" fill="#040809" d="M 252.5,66.5 C 277.895,65.8483 303.061,66.515 328,68.5C 341.578,113.969 355.411,159.302 369.5,204.5C 350.178,205.5 330.845,205.833 311.5,205.5C 310.503,201.508 309.503,197.508 308.5,193.5C 296.185,192.501 283.851,192.168 271.5,192.5C 270.354,196.754 269.687,201.087 269.5,205.5C 250.167,205.5 230.833,205.5 211.5,205.5C 224.959,159.122 238.625,112.789 252.5,66.5 Z"/></g>
<g><path style="opacity:1" fill="#040809" d="M 783.5,193.5 C 777.509,192.834 771.343,192.5 765,192.5C 758.462,192.504 752.295,193.17 746.5,194.5C 745.69,198.044 744.69,201.544 743.5,205C 724.503,205.5 705.503,205.667 686.5,205.5C 699.966,159.103 713.633,112.769 727.5,66.5C 752.509,66.1669 777.509,66.5002 802.5,67.5C 816.82,113.456 830.82,159.456 844.5,205.5C 825.155,205.833 805.822,205.5 786.5,204.5C 785.385,200.737 784.385,197.07 783.5,193.5 Z"/></g>
<g><path style="opacity:1" fill="#040809" d="M 829.5,66.5 C 851.167,66.5 872.833,66.5 894.5,66.5C 898.902,80.371 903.902,94.0376 909.5,107.5C 915.256,94.1645 920.256,80.4978 924.5,66.5C 945.5,66.5 966.5,66.5 987.5,66.5C 971.232,97.0262 954.398,127.36 937,157.5C 936.5,173.497 936.333,189.497 936.5,205.5C 917.5,205.5 898.5,205.5 879.5,205.5C 879.667,189.497 879.5,173.497 879,157.5C 861.841,127.512 845.341,97.1786 829.5,66.5 Z"/></g>
<g><path style="opacity:1" fill="#040809" d="M 355.5,66.5 C 377.167,66.5 398.833,66.5 420.5,66.5C 425.557,80.8361 430.724,95.1695 436,109.5C 440.901,95.3713 446.068,81.3713 451.5,67.5C 472.5,66.1667 493.5,66.1667 514.5,67.5C 497.432,97.2958 480.599,127.296 464,157.5C 463.5,173.497 463.333,189.497 463.5,205.5C 444.167,205.5 424.833,205.5 405.5,205.5C 405.667,189.497 405.5,173.497 405,157.5C 388.461,127.081 371.961,96.7476 355.5,66.5 Z"/></g>
<g><path style="opacity:1" fill="#fdfdfd" d="M 592.5,100.5 C 596.846,100.334 601.179,100.501 605.5,101C 607.305,101.972 608.972,103.139 610.5,104.5C 611.155,114.789 611.489,125.122 611.5,135.5C 611.645,146.26 611.145,156.927 610,167.5C 605.165,172.136 599.332,173.803 592.5,172.5C 592.5,148.5 592.5,124.5 592.5,100.5 Z"/></g>
<g><path style="opacity:1" fill="#fefefe" d="M 138.5,101.5 C 140.371,101.859 141.871,102.859 143,104.5C 143.667,115.167 143.667,125.833 143,136.5C 142.097,137.701 140.931,138.535 139.5,139C 134.845,139.499 130.179,139.666 125.5,139.5C 125.5,126.833 125.5,114.167 125.5,101.5C 129.833,101.5 134.167,101.5 138.5,101.5 Z"/></g>
<g><path style="opacity:1" fill="#a6a8a7" d="M 138.5,101.5 C 134.167,101.5 129.833,101.5 125.5,101.5C 125.5,114.167 125.5,126.833 125.5,139.5C 124.505,126.677 124.171,113.677 124.5,100.5C 129.363,100.181 134.03,100.514 138.5,101.5 Z"/></g>
<g><path style="opacity:1" fill="#f3f4f4" d="M 289.5,114.5 C 293.309,128.631 296.976,142.964 300.5,157.5C 293.866,158.497 287.2,158.83 280.5,158.5C 283.185,143.761 286.185,129.094 289.5,114.5 Z"/></g>
<g><path style="opacity:1" fill="#f5f5f5" d="M 764.5,114.5 C 768.679,128.915 772.345,143.582 775.5,158.5C 768.833,158.5 762.167,158.5 755.5,158.5C 758.711,143.906 761.711,129.239 764.5,114.5 Z"/></g>
<g><path style="opacity:1" fill="#8f9191" d="M 172.5,173.5 C 157.009,174.496 141.342,174.83 125.5,174.5C 125.828,185.014 125.494,195.347 124.5,205.5C 124.5,194.833 124.5,184.167 124.5,173.5C 140.5,173.5 156.5,173.5 172.5,173.5 Z"/></g>
<g><path style="opacity:1" fill="#c6c7c7" d="M 783.5,193.5 C 771.087,193.187 758.753,193.521 746.5,194.5C 752.295,193.17 758.462,192.504 765,192.5C 771.343,192.5 777.509,192.834 783.5,193.5 Z"/></g>
</svg>
